<?xml version="1.0" encoding="UTF-8" standalone="no"?><!DOCTYPE svg PUBLIC "-//W3C//DTD SVG 1.1//EN" "http://www.w3.org/Graphics/SVG/1.1/DTD/svg11.dtd"><svg width="7087px" height="4905px" version="1.1" xmlns="http://www.w3.org/2000/svg" xmlns:xlink="http://www.w3.org/1999/xlink" xml:space="preserve" xmlns:serif="http://www.serif.com/" style="fill-rule:evenodd;clip-rule:evenodd;stroke-linejoin:round;stroke-miterlimit:2;"><g id="Logo"><path d="M-0,2098.92l943.623,-2098.92l384.974,0l946.247,2098.92l-407.93,0l-810.802,-1891l155.779,0l-810.801,1891l-401.09,0Zm436.041,-485.89l104.196,-306.124l1132.62,0l106.773,306.124l-1343.59,-0Z" style="fill-rule:nonzero;"/><path d="M2542.79,2098.92l-0,-2098.92l320.647,0l917.855,1532.16l-170.068,0l904.362,-1532.16l320.601,0l3.42,2098.92l-370.544,0l-3.42,-1519.05l78.475,0l-766.574,1280.53l-176.065,0l-777.537,-1280.53l89.391,0l0,1519.05l-370.543,0Z" style="fill-rule:nonzero;"/><path d="M5877.58,2098.92l-0,-829.167l88.829,237.441l-911.765,-1507.19l415.052,0l733.451,1214.52l-233.739,0l736.823,-1214.52l383.381,0l-910.968,1507.19l88.079,-237.441l0,829.167l-389.143,0Z" style="fill-rule:nonzero;"/><g><g><g transform="matrix(65.3162,0,0,65.3162,-9344.65,-16423.1)"><g transform="matrix(47.6543,0,0,47.6543,165.704,326.055)"><path d="M0.122,0.007c-0.022,-0 -0.042,-0.008 -0.058,-0.024c-0.016,-0.016 -0.024,-0.035 -0.024,-0.059c0,-0.025 0.008,-0.045 0.024,-0.06c0.016,-0.016 0.036,-0.023 0.058,-0.023c0.023,-0 0.042,0.007 0.058,0.023c0.016,0.015 0.024,0.035 0.024,0.06c-0,0.024 -0.008,0.043 -0.024,0.059c-0.016,0.016 -0.035,0.024 -0.058,0.024Z" style="fill:#86bc25;fill-rule:nonzero;"/></g><g transform="matrix(47.6543,0,0,47.6543,177.328,326.055)"><path d="M0.098,-0l0,-0.7l0.323,0c0.083,0 0.146,0.016 0.19,0.049c0.044,0.033 0.066,0.077 0.066,0.133c-0,0.037 -0.009,0.069 -0.026,0.096c-0.017,0.026 -0.04,0.046 -0.068,0.06c-0.028,0.014 -0.058,0.021 -0.09,0.021l0.018,-0.034c0.038,0 0.072,0.007 0.102,0.022c0.031,0.014 0.055,0.034 0.073,0.062c0.018,0.027 0.027,0.061 0.027,0.101c-0,0.06 -0.023,0.107 -0.069,0.14c-0.045,0.033 -0.113,0.05 -0.203,0.05l-0.343,-0Zm0.119,-0.096l0.218,-0c0.051,-0 0.09,-0.009 0.117,-0.025c0.027,-0.017 0.04,-0.043 0.04,-0.08c0,-0.036 -0.013,-0.063 -0.04,-0.08c-0.027,-0.017 -0.066,-0.026 -0.117,-0.026l-0.227,0l0,-0.095l0.201,-0c0.047,-0 0.083,-0.009 0.109,-0.025c0.025,-0.017 0.038,-0.042 0.038,-0.076c0,-0.034 -0.013,-0.059 -0.038,-0.076c-0.026,-0.016 -0.062,-0.025 -0.109,-0.025l-0.192,0l0,0.508Z" style="fill-rule:nonzero;"/></g><g transform="matrix(47.6543,0,0,47.6543,213.527,326.055)"><path d="M0.422,0.01c-0.055,-0 -0.105,-0.009 -0.151,-0.027c-0.046,-0.018 -0.086,-0.043 -0.12,-0.076c-0.034,-0.032 -0.06,-0.07 -0.079,-0.114c-0.019,-0.043 -0.028,-0.091 -0.028,-0.143c-0,-0.052 0.009,-0.1 0.028,-0.143c0.019,-0.044 0.045,-0.082 0.079,-0.114c0.034,-0.033 0.074,-0.058 0.12,-0.076c0.046,-0.018 0.096,-0.027 0.15,-0.027c0.055,0 0.105,0.009 0.151,0.027c0.045,0.018 0.085,0.043 0.119,0.075c0.034,0.032 0.06,0.07 0.079,0.114c0.019,0.044 0.028,0.092 0.028,0.144c0,0.052 -0.009,0.1 -0.028,0.144c-0.019,0.044 -0.045,0.082 -0.079,0.114c-0.034,0.032 -0.074,0.057 -0.119,0.075c-0.046,0.018 -0.096,0.027 -0.15,0.027Zm-0.001,-0.114c0.036,0 0.068,-0.006 0.098,-0.018c0.03,-0.012 0.056,-0.029 0.078,-0.051c0.022,-0.022 0.039,-0.049 0.052,-0.079c0.012,-0.029 0.018,-0.062 0.018,-0.098c0,-0.036 -0.006,-0.069 -0.018,-0.099c-0.013,-0.029 -0.03,-0.055 -0.052,-0.078c-0.022,-0.022 -0.048,-0.039 -0.078,-0.051c-0.03,-0.012 -0.062,-0.018 -0.098,-0.018c-0.035,-0 -0.068,0.006 -0.098,0.018c-0.03,0.012 -0.056,0.029 -0.078,0.052c-0.022,0.022 -0.039,0.048 -0.052,0.078c-0.012,0.029 -0.018,0.062 -0.018,0.098c-0,0.035 0.006,0.068 0.018,0.098c0.012,0.03 0.03,0.056 0.052,0.079c0.022,0.022 0.048,0.039 0.078,0.051c0.03,0.012 0.063,0.018 0.098,0.018Z" style="fill-rule:nonzero;"/></g></g></g></g></g></svg>
